<svg class="icon" viewBox="0 0 1024 1024" xmlns="http://www.w3.org/2000/svg" data-spm-anchor-id="a313x.7781069.0.i11"><path d="M482.825 891.986c-.196 0-.375-.016-.57-.016-12.134-.163-23.39-5.742-30.856-15.29L115.003 447.77c-10.41-13.249-11.337-31.735-2.326-45.983l123.914-195.932c7.337-11.63 19.959-18.584 33.736-18.584H695.81c12.883 0 25.034 6.263 32.5 16.754l140.83 197.208c10.507 14.729 9.792 34.736-1.74 48.66L513.55 877.524c-7.628 9.207-18.803 14.461-30.726 14.461zM158.693 422.51l324.343 413.536 340.95-412.065-133.347-186.74H275.857L158.693 422.51z" data-spm-anchor-id="a313x.7781069.0.i12" class="selected"/><path d="M491.82 596.011c-70.627 0-128.095-57.467-128.095-128.094 0-70.635 57.468-128.094 128.094-128.094s128.095 57.46 128.095 128.094c0 70.627-57.468 128.094-128.095 128.094zm0-206.22c-43.073 0-78.126 35.046-78.126 78.126 0 43.072 35.053 78.125 78.125 78.125s78.126-35.053 78.126-78.125c0-43.08-35.053-78.125-78.126-78.125z"/></svg>
