<svg class="icon" viewBox="0 0 1024 1024" xmlns="http://www.w3.org/2000/svg" width="32" height="32"><path d="M566.152 1023.886a34.13 34.13 0 0 1-33.674-34.584V397.21a35.153 35.153 0 0 1 8.134-22.753l255.573-305.46h-692.83l234.698 306.598a35.381 35.381 0 0 1 7.224 21.387V750.85l101.479 104.266a35.267 35.267 0 0 1-.398 48.919 33.049 33.049 0 0 1-47.27 0L287.826 789.7a34.926 34.926 0 0 1-9.84-24.46v-355.8L7.621 56.257a35.324 35.324 0 0 1 5.689-48.578A33.276 33.276 0 0 1 34.13.284h835.889a32.992 32.992 0 0 1 23.834 10.126 35.324 35.324 0 0 1 1.706 47.041L600.282 410.123V989.36A34.13 34.13 0 0 1 566.607 1024z"/><path d="M729.633 931.623a32.992 32.992 0 0 1-23.777-10.125 34.869 34.869 0 0 1-9.84-24.517 34.13 34.13 0 0 1 33.674-34.584h260.806a34.641 34.641 0 0 1 0 69.226H729.86zm0-216.666a34.641 34.641 0 0 1 0-69.226h260.863a34.641 34.641 0 0 1 0 69.226H729.86zm0-214.163a34.641 34.641 0 0 1 0-69.226h260.522a34.641 34.641 0 0 1 0 69.226H729.519z"/></svg>
