<svg class="icon" viewBox="0 0 1054 1024" xmlns="http://www.w3.org/2000/svg"><path d="M200.137 467.123a65.467 65.467 0 0 0 130.934 0 65.467 65.467 0 0 0-130.934 0zm258.796 0a65.467 65.467 0 0 0 130.934 0 65.467 65.467 0 0 0-130.934 0zm258.745 0a65.467 65.467 0 1 0 65.467-65.467 65.467 65.467 0 0 0-65.467 65.467z"/><path d="M1011.895 283.672a467.276 467.276 0 0 0-113.992-148.439 576.507 576.507 0 0 0-741.786 0 465.792 465.792 0 0 0-113.991 148.44A419.725 419.725 0 0 0 0 467.172a427.351 427.351 0 0 0 58.761 214.982 488.672 488.672 0 0 0 138.202 149.77V986.66a37.417 37.417 0 0 0 18.683 32.35 37.468 37.468 0 0 0 37.315 0l163.795-94.541a593.757 593.757 0 0 0 110.254 10.237 560.179 560.179 0 0 0 370.893-135.13 465.792 465.792 0 0 0 113.992-148.44 420.902 420.902 0 0 0 0-367.156zM527.01 859.975a519.793 519.793 0 0 1-108.872-11.517 37.315 37.315 0 0 0-26.412 4.197l-120.031 69.357V812.218a37.724 37.724 0 0 0-16.79-31.274A375.295 375.295 0 0 1 74.528 467.276c0-216.465 202.952-392.493 452.534-392.493S979.596 250.81 979.596 467.276 776.49 859.924 527.061 859.924z"/></svg>
