<svg class="icon" viewBox="0 0 1048 1024" xmlns="http://www.w3.org/2000/svg"><path d="M690.892 926.208a97.894 97.894 0 0 1 97.741-97.74 97.894 97.894 0 0 1 97.741 97.74A97.894 97.894 0 0 1 788.838 1024a97.894 97.894 0 0 1-97.946-97.792zm70.196 0a27.546 27.546 0 0 0 27.545 27.546 27.597 27.597 0 0 0 27.546-27.546 27.597 27.597 0 0 0-27.546-27.546 27.597 27.597 0 0 0-27.545 27.648zm-496.64 0a97.894 97.894 0 0 1 97.74-97.74 97.843 97.843 0 0 1 97.741 97.74A97.843 97.843 0 0 1 362.393 1024a97.894 97.894 0 0 1-97.74-97.792zm70.195 0a27.597 27.597 0 0 0 27.546 27.546 27.597 27.597 0 0 0 27.596-27.546 27.648 27.648 0 0 0-27.596-27.546 27.597 27.597 0 0 0-27.341 27.648zm-48.64-129.433a35.84 35.84 0 0 1-35.43-28.212L149.146 240.845l-30.72-170.65H35.123A35.123 35.123 0 0 1 .051 35.073 35.123 35.123 0 0 1 35.123-.05h112.64a35.02 35.02 0 0 1 34.56 28.16l32.666 171.725h798.258a35.328 35.328 0 0 1 27.546 13.773 34.509 34.509 0 0 1 6.451 29.85l-94.31 398.642a36.762 36.762 0 0 1-34.15 28.724l-615.322-3.277 11.571 58.982h572.775a35.174 35.174 0 0 1 35.123 35.123 35.174 35.174 0 0 1-35.123 35.124zm-40.14-432.538l44.134 231.578 601.036 1.177 77.722-325.99H228.249z"/></svg>
