<svg class="icon" viewBox="0 0 1091 1024" xmlns="http://www.w3.org/2000/svg" width="32" height="32"><path d="M259.156 942.086l12.85-7.628c14.796-8.857 31.435-18.585 49.507-28.926s35.838-20.479 54.115-30.718c41.52-23.602 88.314-50.838 139.152-80.89l31.025-18.38 282.757 164.699-.819-3.942a2996.78 2996.78 0 0 1-10.546-54.371 1566.098 1566.098 0 0 0-11.52-56.316v-1.075c-9.317-46.077-20.478-97.99-32.458-154.767l-7.475-34.813 238.576-214.41-331.036-31.384-128.4-307.179-132.855 309.739-327.657 29.693c6.962 5.94 15.359 13.363 25.598 22.117 10.956 9.523 23.55 20.479 37.373 32.05l42.903 36.451a19664.534 19664.534 0 0 1 115.601 99.219l28.414 24.523-8.908 36.452q-20.478 84.73-36.964 152.104v.973c-5.12 19.25-9.88 38.5-14.54 57.084s-8.754 35.479-12.287 50.633l-2.406 9.062M227.978 1024a37.015 37.015 0 0 1-5.12-.358 46.794 46.794 0 0 1-20.479-8.14 40.19 40.19 0 0 1-13.567-15.77 28.824 28.824 0 0 1-2.15-19.044l5.427-21.195q4.352-16.844 9.778-40.24t12.492-51.658 14.694-57.596l36.963-152.207q-64.149-55.445-115.243-98.911l-43.26-36.606q-21.196-17.918-38.04-32.612T41.726 465.96l-11.98-10.239a129.936 129.936 0 0 1-22.27-26.622A43.363 43.363 0 0 1 .41 399.199a37.937 37.937 0 0 1 11.98-23.908 44.234 44.234 0 0 1 21.502-11.008l335.95-30.462L495.07 42.463a86.727 86.727 0 0 1 18.482-29.899A43.005 43.005 0 0 1 546.163.072a36.247 36.247 0 0 1 19.045 5.12 52.886 52.886 0 0 1 13.567 11.417 96.147 96.147 0 0 1 9.216 13.055q3.942 6.246 5.99 10.649L715.726 331.67l335.95 31.537a75.617 75.617 0 0 1 30.462 13.055 30.155 30.155 0 0 1 8.703 23.909 40.957 40.957 0 0 1-9.215 26.622q-9.266 11.417-23.397 27.697L832.965 656.717q18.482 85.908 32.612 155.484 6.502 29.335 11.98 58.722t10.24 53.295q5.12 23.909 8.14 40.957t4.352 21.196q3.276 21.758-9.779 28.823a60.617 60.617 0 0 1-29.336 7.065 50.326 50.326 0 0 1-15.768-3.788q-10.24-3.789-15.768-5.99l-283.73-165.262q-77.205 45.667-140.228 81.556l-53.807 30.462q-26.622 15.103-48.38 28.26-21.76 13.055-37.528 21.758t-21.195 10.854a37.732 37.732 0 0 1-16.792 3.891z"/></svg>
