<svg class="icon" viewBox="0 0 1091 1024" xmlns="http://www.w3.org/2000/svg"><path d="M832.428 656.64q18.504 85.868 32.574 155.365 6.48 29.334 11.938 58.668t10.318 53.21q4.86 23.876 8.527 40.76t4.35 21.147q3.24 21.745-9.807 28.822a60.543 60.543 0 0 1-29.334 7.078 50.31 50.31 0 0 1-15.775-3.837l-15.775-5.97L545.828 846.37q-76.745 45.62-140.188 81.52-27.202 15.179-53.807 30.443t-48.349 28.225q-21.744 13.046-37.52 21.744t-21.147 10.83a37.093 37.093 0 0 1-22.256 4.178 46.73 46.73 0 0 1-20.636-8.527 40.163 40.163 0 0 1-13.559-15.775 28.822 28.822 0 0 1-2.131-19.016l5.457-21.148q4.349-17.054 9.806-40.163t12.535-51.59q7.078-28.225 14.667-57.558l36.923-152.126q-64.21-55.513-115.373-98.916l-42.636-36.411q-21.404-17.908-38.202-32.574t-27.714-23.877q-10.83-9.21-11.938-10.318a129.87 129.87 0 0 1-22.256-26.605 43.318 43.318 0 0 1-7.078-29.845 37.86 37.86 0 0 1 11.938-23.876 44.256 44.256 0 0 1 21.745-10.83l335.717-30.442L494.75 42.68a86.637 86.637 0 0 1 18.504-29.846A42.636 42.636 0 0 1 545.828.043a36.24 36.24 0 0 1 19.016 4.86 52.869 52.869 0 0 1 13.558 11.427 96.102 96.102 0 0 1 9.21 13.046q3.837 6.481 5.968 10.83L715.264 331.41l335.717 31.465a75.551 75.551 0 0 1 30.442 13.047 30.186 30.186 0 0 1 8.527 23.876 41.016 41.016 0 0 1-9.038 26.605q-9.21 11.427-23.365 27.714z"/></svg>
